<?xml version="1.0" encoding="UTF-8" standalone="no" ?>
<svg
  class="icon--svg "
  role="img"
  aria-labelledby="ico-beto-download-title"
  width="160"
  height="160"
  version="1.1"
  id="svg5"
  xmlns="http://www.w3.org/2000/svg"
  xmlns:svg="http://www.w3.org/2000/svg"
  xmlns:rdf="http://www.w3.org/1999/02/22-rdf-syntax-ns#"
  xmlns:cc="http://creativecommons.org/ns#"
  xmlns:dc="http://purl.org/dc/elements/1.1/"
>
  <defs id="defs5" />
  <g id="use5" style="fill:#404040">
    <g clip-path="url(#aa)" id="g9" transform="translate(-31,-31)">
      <path
        d="m 183.827,110.596 c -3.629,0 -6.738,-2.738 -7.119,-6.405 -3.466,-33.6 -31.716,-58.936 -65.706,-58.936 -27.54,0 -51.718,16.758 -61.499,41.657 h 43.47 L 89.456,83.41 a 6.312,6.312 0 0 1 0,-8.956 6.388,6.388 0 0 1 9.004,0 l 15.17,15.098 a 6.314,6.314 0 0 1 0,8.961 l -15.17,15.098 a 6.384,6.384 0 0 1 -8.999,0 6.315,6.315 0 0 1 0,-8.961 l 3.493,-3.475 H 40.305 c -2.195,0 -4.589,-1.168 -5.95,-2.885 -1.363,-1.725 -1.93,-4.34 -1.406,-6.467 C 41.801,56.011 73.9,31 111.002,31 c 41.361,0 75.736,30.843 79.96,71.737 0.404,3.914 -2.46,7.418 -6.396,7.82 a 8.026,8.026 0 0 1 -0.739,0.039 z"
        id="path8"
      />
      <path
        d="m 37.437,111.354 c 3.983,-0.356 7.45,2.46 7.854,6.374 0.12,1.199 0.276,2.39 0.462,3.565 5.071,32.131 32.514,55.444 65.249,55.444 27.551,0 51.737,-16.761 61.51,-41.683 h -43.509 l 3.545,3.528 a 6.316,6.316 0 0 1 0,8.961 6.385,6.385 0 0 1 -8.999,0 l -15.174,-15.101 a 6.316,6.316 0 0 1 0,-8.961 l 15.171,-15.099 a 6.39,6.39 0 0 1 9.004,0 6.313,6.313 0 0 1 0,8.957 l -3.468,3.452 h 52.628 c 2.195,0 4.593,1.168 5.949,2.885 1.364,1.725 1.931,4.324 1.407,6.458 C 180.225,165.97 148.124,191 111.002,191 71.167,191 37.776,162.613 31.601,123.506 a 83.856,83.856 0 0 1 -0.564,-4.34 c -0.4,-3.913 2.468,-7.41 6.4,-7.812 z"
        id="path9"
      />
    </g>
    <defs id="defs11" />
  </g>
</svg>
